<?xml version="1.0" encoding="UTF-8" standalone="no"?>
<svg
   xmlns:dc="http://purl.org/dc/elements/1.1/"
   xmlns:cc="http://creativecommons.org/ns#"
   xmlns:rdf="http://www.w3.org/1999/02/22-rdf-syntax-ns#"
   xmlns:svg="http://www.w3.org/2000/svg"
   xmlns="http://www.w3.org/2000/svg"
   width="256"
   height="263.53973"
   viewBox="0 0 256 263.53973"
   version="1.1"
   id="svg6">
  <metadata
     id="metadata12">
    <rdf:RDF>
      <cc:Work
         rdf:about="">
        <dc:format>image/svg+xml</dc:format>
        <dc:type
           rdf:resource="http://purl.org/dc/dcmitype/StillImage" />
        <dc:title>Logomark</dc:title>
      </cc:Work>
    </rdf:RDF>
  </metadata>
  <defs
     id="defs10" />
  <title
     id="title2">Logomark</title>
  <path
     d="M 255.85564,59.619588 A 4.1709429,4.1709429 0 0 1 256,60.697125 v 56.568085 a 4.1245418,4.1245418 0 0 1 -2.07258,3.57804 l -47.47863,27.33541 v 54.18101 c 0,1.47452 -0.78367,2.83562 -2.06228,3.57804 l -99.10758,57.05272 c -0.22685,0.1289 -0.47432,0.21139 -0.72179,0.29903 -0.0928,0.0309 -0.18045,0.0876 -0.27841,0.11343 a 4.1503202,4.1503202 0 0 1 -2.11383,0 c -0.11342,-0.0309 -0.21654,-0.0928 -0.32481,-0.13405 -0.22685,-0.0825 -0.46401,-0.15467 -0.68055,-0.27841 L 2.0725823,205.93771 A 4.1296975,4.1296975 0 0 1 0,202.35967 V 32.655396 c 0,-0.371209 0.05155677,-0.732106 0.14435896,-1.082692 0.0309341,-0.118581 0.10311355,-0.22685 0.14435897,-0.345431 0.0773352,-0.216538 0.14951464,-0.438232 0.26293954,-0.639304 0.0773352,-0.134047 0.19076006,-0.242317 0.28356225,-0.366053 0.11858058,-0.164982 0.22684978,-0.335119 0.36605308,-0.479478 0.1185806,-0.11858 0.2732509,-0.206227 0.4072985,-0.30934 0.1495147,-0.123737 0.2835623,-0.257784 0.4536996,-0.355742 h 0.00516 L 51.613485,0.55099365 a 4.1348532,4.1348532 0 0 1 4.124542,0 L 105.28409,29.077356 h 0.0103 c 0.16498,0.103113 0.30418,0.232005 0.4537,0.350586 0.13404,0.103113 0.28356,0.195916 0.40214,0.30934 0.14436,0.149515 0.24747,0.319652 0.37121,0.484634 0.0876,0.123736 0.20623,0.232006 0.2784,0.366053 0.11859,0.206227 0.18561,0.422766 0.2681,0.639304 0.0413,0.118581 0.11343,0.22685 0.14436,0.350586 a 4.1709429,4.1709429 0 0 1 0.14436,1.077537 V 138.65096 l 41.28666,-23.77282 V 60.691969 c 0,-0.360897 0.0516,-0.726951 0.14436,-1.072381 0.0361,-0.123736 0.10311,-0.232005 0.14436,-0.350586 0.0825,-0.216538 0.15467,-0.438233 0.2681,-0.639304 0.0773,-0.134048 0.19076,-0.242317 0.2784,-0.366053 0.12374,-0.164982 0.22685,-0.335119 0.37121,-0.479478 0.11858,-0.118581 0.2681,-0.206227 0.40214,-0.309341 0.15467,-0.123736 0.28872,-0.257784 0.4537,-0.355741 h 0.005 L 200.2618,28.592722 a 4.1296975,4.1296975 0 0 1 4.12454,0 l 49.54606,28.526363 c 0.1753,0.103113 0.30934,0.232005 0.46401,0.350586 0.1289,0.103113 0.27841,0.195915 0.39699,0.30934 0.14436,0.149515 0.24747,0.319652 0.37121,0.484634 0.0928,0.123736 0.20623,0.232005 0.27841,0.366053 0.11858,0.201071 0.1856,0.422766 0.26809,0.639304 0.0464,0.118581 0.11343,0.22685 0.14436,0.350586 z M 247.7406,114.87814 V 67.837738 l -17.33854,9.981391 -23.95327,13.791437 v 47.040394 l 41.29697,-23.77282 z m -49.54605,85.09445 v -47.07133 l -23.56145,13.45631 -67.28159,38.39949 v 47.51472 z M 8.259395,39.796009 V 199.97259 l 90.832722,52.29403 v -47.50441 l -47.452853,-26.85592 -0.01547,-0.0103 -0.02062,-0.0103 c -0.159826,-0.0928 -0.293874,-0.22685 -0.443388,-0.34028 -0.128892,-0.10311 -0.278407,-0.1856 -0.391832,-0.29903 l -0.01031,-0.0155 c -0.134048,-0.12889 -0.22685,-0.28872 -0.340275,-0.43308 -0.103113,-0.1392 -0.22685,-0.25778 -0.30934,-0.40214 l -0.0052,-0.0155 c -0.0928,-0.15467 -0.149515,-0.34027 -0.216539,-0.51557 -0.06702,-0.15467 -0.15467,-0.29903 -0.195915,-0.46401 v -0.005 c -0.05156,-0.19592 -0.06187,-0.40215 -0.08249,-0.60322 -0.02062,-0.15467 -0.06187,-0.30934 -0.06187,-0.46401 V 174.31794 63.568837 L 25.597938,49.772244 8.259395,39.801165 Z M 53.680912,8.8928795 12.399404,32.655396 53.670601,56.417912 94.946953,32.65024 53.670601,8.8928795 Z M 75.149152,157.19078 99.097273,143.4045 V 39.796009 L 81.75873,49.7774 57.805454,63.568837 V 167.17733 Z M 202.32424,36.934608 l -41.27635,23.762517 41.27635,23.762516 41.2712,-23.767672 z m -4.12969,54.675958 -23.95328,-13.791437 -17.33854,-9.981391 v 47.040402 l 23.94812,13.78628 17.3437,9.98654 z m -94.97789,106.005884 60.54312,-34.56367 30.26382,-17.27151 -41.24541,-23.74705 -47.48895,27.34055 -43.281909,24.91739 z"
     fill="#ff2d20"
     fill-rule="evenodd"
     id="path4"
     style="stroke-width:5.15568" />
</svg>
